<?xml version="1.0" standalone="no"?>
<!DOCTYPE svg PUBLIC "-//W3C//DTD SVG 20010904//EN"
 "http://www.w3.org/TR/2001/REC-SVG-20010904/DTD/svg10.dtd">
<svg version="1.0" xmlns="http://www.w3.org/2000/svg"
 width="180.000000pt" height="180.000000pt" viewBox="0 0 180.000000 180.000000"
 preserveAspectRatio="xMidYMid meet">

<g transform="translate(0.000000,180.000000) scale(0.100000,-0.100000)"
fill="#000000" stroke="none">
<path d="M1599 1661 c-75 -76 4 -201 102 -161 40 17 59 47 59 93 0 53 -43 97
-95 97 -27 0 -44 -8 -66 -29z m129 -17 c48 -54 10 -134 -63 -134 -69 0 -108
73 -69 128 33 48 92 50 132 6z"/>
<path d="M1631 1588 c1 -29 3 -45 6 -35 6 21 17 22 33 2 7 -8 17 -15 23 -15 7
0 7 4 -1 12 -8 8 -8 15 -1 24 6 7 9 23 7 36 -2 18 -10 24 -35 26 l-33 3 1 -53z
m54 17 c0 -13 -8 -21 -22 -23 -19 -3 -23 1 -23 23 0 22 4 26 23 23 14 -2 22
-10 22 -23z"/>
<path d="M299 1433 c-13 -3 -15 -20 -12 -106 2 -56 5 -111 7 -122 3 -11 5 -28
5 -37 1 -14 10 -18 41 -18 84 0 144 59 144 142 0 95 -92 166 -185 141z"/>
<path d="M1187 1126 c5 -14 3 -17 -7 -11 -9 5 -11 4 -6 -4 4 -6 3 -17 -2 -24
-9 -12 -32 -95 -32 -117 0 -6 18 1 40 17 26 18 40 36 40 51 0 12 5 22 10 22 6
0 10 7 10 15 0 12 -6 11 -35 -5 -38 -22 -47 -12 -15 18 18 17 18 20 5 38 -15
19 -15 19 -8 0z"/>
<path d="M210 916 c0 -135 0 -136 61 -136 37 0 48 -19 90 -146 19 -61 37 -101
46 -101 11 0 17 10 15 28 -1 3 5 6 13 6 8 0 12 -5 8 -10 -3 -5 7 -1 21 8 15
10 25 23 22 30 -2 6 2 12 10 12 7 0 10 -5 7 -10 -4 -6 -1 -7 6 -3 7 5 10 14 7
21 -3 9 2 12 14 10 10 -2 21 3 24 11 3 9 10 12 16 9 6 -3 13 1 16 9 3 9 10 13
15 10 16 -10 1 58 -49 216 l-48 155 -147 3 -147 3 0 -125z"/>
<path d="M790 1033 l-66 -4 -32 -128 -32 -128 20 -67 c12 -36 25 -66 31 -66 6
0 41 19 77 43 37 24 74 46 82 51 28 14 -65 -66 -112 -96 -27 -17 -46 -33 -44
-36 5 -4 85 41 131 73 51 37 62 39 21 4 -22 -19 -47 -38 -56 -44 -56 -35 -80
-60 -79 -84 2 -24 2 -24 6 -3 2 12 9 22 14 22 6 0 7 -9 4 -21 -5 -15 -4 -19 4
-15 6 4 11 16 11 27 0 11 4 18 9 15 5 -4 12 0 14 6 3 8 6 6 6 -4 1 -22 19 -24
27 -3 4 8 11 15 18 15 7 0 42 15 79 34 65 34 67 34 68 13 1 -20 2 -19 13 5 8
18 15 25 22 18 6 -6 15 -5 24 1 10 7 11 12 4 15 -7 3 -10 13 -7 22 3 14 -23
133 -68 305 l-10 37 -57 -2 c-31 -1 -86 -3 -122 -5z"/>
<path d="M1190 954 c-36 -24 -67 -51 -68 -60 -2 -9 25 6 67 37 39 30 71 57 71
61 0 11 3 12 -70 -38z"/>
<path d="M1378 989 c-2 -7 -15 -14 -29 -14 -13 -1 -42 -10 -64 -20 -22 -10
-42 -19 -45 -19 -3 -1 -36 -21 -73 -45 -55 -35 -67 -48 -67 -70 0 -47 133
-476 141 -455 10 25 109 447 109 463 0 7 -5 9 -12 5 -7 -4 -6 1 3 12 17 19 53
143 45 151 -2 2 -6 -1 -8 -8z"/>
<path d="M936 605 c-11 -8 -15 -15 -9 -15 6 0 16 7 23 15 16 19 11 19 -14 0z"/>
</g>
</svg>
